<svg width="100%" style="" viewBox="0 0 68 68" fill="none" xmlns="http://www.w3.org/2000/svg">
<style>
    .adaptive {
      fill: #32424B;
    }
    @media (prefers-color-scheme: dark) {
      .adaptive {
        fill: white;
      }
    }
  </style>
<path d="M10.2788 64V3H33.7145C44.3618 3 52.7234 5.78857 58.7993 11.3657C64.9331 16.9429 68 24.2629 68 33.3257C68 42.3305 64.9042 49.7086 58.7125 55.46C52.5209 61.1533 44.0725 64 33.3673 64H10.2788ZM27.1178 49.0114H33.9749C39.0671 49.0114 43.1177 47.6462 46.1267 44.9157C49.1936 42.1852 50.727 38.351 50.727 33.4129C50.727 28.591 49.1936 24.7857 46.1267 21.9971C43.1177 19.2086 39.0671 17.8143 33.9749 17.8143H27.1178V49.0114Z" fill="url(#Frame204_paint0-linear-202-7)"/>
<path class="adaptive" d="M0 64V3H23.4357C34.083 3 42.4446 5.78857 48.5205 11.3657C54.6543 16.9429 57.7212 24.2629 57.7212 33.3257C57.7212 42.3305 54.6254 49.7086 48.4337 55.46C42.2421 61.1533 33.7937 64 23.0885 64H0ZM16.839 49.0114H23.6961C28.7883 49.0114 32.8389 47.6462 35.8479 44.9157C38.9148 42.1852 40.4482 38.351 40.4482 33.4129C40.4482 28.591 38.9148 24.7857 35.8479 21.9971C32.8389 19.2086 28.7883 17.8143 23.6961 17.8143H16.839V49.0114Z" fill="currentColor"/>
<defs>
<linearGradient id="Frame204_paint0-linear-202-7" x1="68" y1="3" x2="0" y2="3" gradientUnits="userSpaceOnUse">
<stop stop-color="#42D392"/>
<stop offset="0.0001" stop-color="#42D392"/>
<stop offset="1" stop-color="#5980DE"/>
</linearGradient>
</defs>
</svg>