<svg width="100" height="100" viewBox="0 0 100 100" fill="none" xmlns="http://www.w3.org/2000/svg">
<path d="M15 97V7H49.5113C65.1905 7 77.5038 11.1143 86.4511 19.3429C95.4837 27.5714 100 38.3714 100 51.7429C100 65.0286 95.4411 75.9143 86.3233 84.4C77.2055 92.8 64.7644 97 49 97H15ZM39.797 74.8857H49.8947C57.3935 74.8857 63.3584 72.8714 67.7895 68.8429C72.3058 64.8143 74.5639 59.1571 74.5639 51.8714C74.5639 44.7571 72.3058 39.1429 67.7895 35.0286C63.3584 30.9143 57.3935 28.8571 49.8947 28.8571H39.797V74.8857Z" fill="url(#paint0_linear_102_290)"/>
<path d="M0 97V7H34.5113C50.1905 7 62.5038 11.1143 71.4511 19.3429C80.4837 27.5714 85 38.3714 85 51.7429C85 65.0286 80.4411 75.9143 71.3233 84.4C62.2055 92.8 49.7644 97 34 97H0ZM24.797 74.8857H34.8947C42.3935 74.8857 48.3584 72.8714 52.7895 68.8429C57.3058 64.8143 59.5639 59.1571 59.5639 51.8714C59.5639 44.7571 57.3058 39.1429 52.7895 35.0286C48.3584 30.9143 42.3935 28.8571 34.8947 28.8571H24.797V74.8857Z" fill="white"/>
<defs>
<linearGradient id="paint0_linear_102_290" x1="106.304" y1="-1.12028" x2="7.07519" y2="-1.12028" gradientUnits="userSpaceOnUse">
<stop stop-color="#42D392"/>
<stop offset="0.0001" stop-color="#42D392"/>
<stop offset="1" stop-color="#5980DE"/>
</linearGradient>
</defs>
</svg>
