<svg width="100%" style="" viewBox="0 0 27 14" fill="none" xmlns="http://www.w3.org/2000/svg">
<path fill-rule="evenodd" clip-rule="evenodd" d="M0.624329 0.68335C0.224579 1.12109 0 1.7146 0 2.33325V11.6667C0 12.2854 0.224579 12.8789 0.624329 13.3167C1.02408 13.7542 1.56625 14 2.13159 14H24.8684C25.4337 14 25.9759 13.7542 26.3757 13.3167C26.7754 12.8789 27 12.2854 27 11.6667V2.33325C27 1.7146 26.7754 1.12109 26.3757 0.68335C25.9759 0.24585 25.4337 0 24.8684 0H2.13159C1.56625 0 1.02408 0.24585 0.624329 0.68335ZM9.18802 6.47339C9.06763 6.61304 9 6.80249 9 7C9 7.19751 9.06763 7.38696 9.18802 7.52661L11.1167 9.7627C11.1756 9.83594 11.2466 9.89478 11.3254 9.93555C11.356 9.95142 11.3874 9.96436 11.4195 9.97437C11.443 9.98169 11.4669 9.98755 11.4909 9.9917C11.5189 9.99658 11.5473 9.99927 11.5757 10C11.662 10.0017 11.7478 9.98315 11.8279 9.9458C11.9079 9.9082 11.9806 9.85254 12.0417 9.78174C12.1027 9.71094 12.1508 9.62671 12.1832 9.53369C12.2155 9.44092 12.2314 9.34155 12.2299 9.24146C12.2289 9.17725 12.2208 9.11377 12.2059 9.05225C12.1975 9.01782 12.187 8.98413 12.1743 8.95117C12.1518 8.89258 12.1229 8.83789 12.0885 8.78809C12.076 8.77026 12.0629 8.75293 12.0491 8.73633C12.0414 8.72705 12.0335 8.71802 12.0253 8.70923L10.551 7L12.0253 5.29077C12.0885 5.22241 12.1392 5.14014 12.1743 5.04858C12.1983 4.98633 12.2147 4.92041 12.2232 4.85327C12.2257 4.83301 12.2276 4.8125 12.2287 4.79199L12.2299 4.75854C12.2314 4.65845 12.2155 4.55908 12.1832 4.46631C12.1508 4.37329 12.1027 4.28906 12.0417 4.21826C11.9806 4.14746 11.9079 4.0918 11.8279 4.0542C11.7478 4.01685 11.662 3.99829 11.5757 4C11.5151 4.00146 11.4551 4.01245 11.3975 4.03296C11.373 4.04175 11.3489 4.05225 11.3254 4.06445C11.2466 4.10522 11.1756 4.16406 11.1167 4.2373L9.18802 6.47339ZM18 7C17.9998 7.19751 17.932 7.38696 17.8114 7.52661L15.8827 9.7627C15.8686 9.78027 15.8539 9.79688 15.8384 9.81274L15.8175 9.83325C15.7739 9.87451 15.7256 9.90894 15.674 9.93555C15.6501 9.94775 15.6256 9.9585 15.6006 9.96729C15.5855 9.97266 15.5702 9.97729 15.5547 9.98145C15.5339 9.98682 15.5129 9.99121 15.4917 9.99438C15.4692 9.99756 15.4465 9.99951 15.4237 10C15.3374 10.0017 15.2516 9.98315 15.1716 9.9458C15.0916 9.9082 15.0188 9.85254 14.9578 9.78174C14.8967 9.71094 14.8486 9.62671 14.8163 9.53369C14.7981 9.48169 14.7852 9.42773 14.7776 9.37256C14.7716 9.32935 14.7689 9.2854 14.7696 9.24146C14.7702 9.19995 14.7738 9.15894 14.7803 9.11841C14.7895 9.06104 14.8045 9.00488 14.8251 8.95117C14.837 8.92041 14.8506 8.89062 14.8658 8.86206C14.8958 8.80615 14.9322 8.75464 14.9741 8.70923L16.4485 7L14.9741 5.29077C14.9109 5.22241 14.8603 5.14014 14.8251 5.04858C14.79 4.95728 14.7711 4.85864 14.7696 4.75854C14.7681 4.65845 14.7839 4.55908 14.8163 4.46631C14.8486 4.37329 14.8967 4.28906 14.9578 4.21826C14.9838 4.18799 15.012 4.16064 15.042 4.13623C15.0823 4.10327 15.1257 4.07568 15.1716 4.0542C15.2516 4.01685 15.3374 3.99829 15.4237 4C15.438 4.00024 15.4523 4.00098 15.4665 4.00244C15.4897 4.00464 15.5127 4.00854 15.5355 4.01367L15.5655 4.02173C15.5908 4.02881 15.6157 4.0376 15.6401 4.04834C15.6515 4.05322 15.6628 4.05859 15.674 4.06445C15.7529 4.10522 15.8239 4.16406 15.8827 4.2373L17.8114 6.47339C17.9323 6.6123 18 6.80225 18 7Z" fill="currentColor"/>
</svg>