<svg width="100%" style="" viewBox="0 0 33 18" fill="none" xmlns="http://www.w3.org/2000/svg">
<path d="M28.8213 7.75578L28.0375 8.2251C27.8533 8.33474 27.5263 8.37432 27.3109 8.3122L16.6087 5.44892C16.3928 5.38693 16.2193 5.48491 16.2227 5.66652L16.4154 14.9171C16.4189 15.0992 16.5962 15.1893 16.8098 15.119L27.3833 11.8133C27.5961 11.7422 27.9249 11.7682 28.1132 11.8704L28.9161 12.3068C29.105 12.4092 29.2562 12.3442 29.2523 12.1627L29.1639 7.88568C29.1598 7.7037 29.0063 7.64535 28.8213 7.75578ZM23.8161 8.61229C23.7657 8.81959 23.5566 8.94642 23.3495 8.89657L18.4613 7.67491C18.2544 7.62391 18.127 7.41494 18.1773 7.20765C18.2277 7.00036 18.4367 6.87301 18.6439 6.92337L23.5323 8.14554C23.7395 8.19586 23.8664 8.405 23.8161 8.61229Z" fill="currentColor"/>
<path d="M15.1866 4.93299C14.9273 4.93867 14.7203 5.15316 14.7256 5.41308L14.9289 15.1906C14.9348 15.4504 15.1496 15.6567 15.4096 15.6514C15.6688 15.6457 15.8752 15.4309 15.87 15.1715L15.667 5.39327C15.6618 5.13389 15.4465 4.92767 15.1866 4.93299Z" fill="currentColor"/>
<path d="M30.1732 7.33033C29.914 7.33601 29.7076 7.55083 29.7128 7.81026L29.8037 12.1726C29.8088 12.432 30.0242 12.6383 30.2836 12.6331C30.5435 12.6277 30.7494 12.413 30.744 12.1531L30.6537 7.79063C30.6485 7.53122 30.4332 7.32501 30.1732 7.33033Z" fill="currentColor"/>
<path d="M0.449648 14L3.42965 6.95H5.29965L8.27965 14H6.19965L5.68965 12.75H2.98965L2.48965 14H0.449648ZM3.55965 11.24H5.12965L4.34965 9.25L3.55965 11.24ZM8.99887 14V7H10.9489V14H8.99887Z" fill="currentColor"/>
</svg>