<svg width="100%" style="" viewBox="0 0 25 16" fill="none" xmlns="http://www.w3.org/2000/svg">
<path fill-rule="evenodd" clip-rule="evenodd" d="M0.264061 0.852252C0.367482 0.746763 0.507751 0.6875 0.65401 0.6875H24.3452C24.4914 0.6875 24.6317 0.746763 24.7351 0.852252C24.8386 0.957742 24.8967 1.10082 24.8967 1.25C24.8967 1.39918 24.8386 1.54226 24.7351 1.64775C24.6317 1.75324 24.4914 1.8125 24.3452 1.8125H23.7937V9.6875C23.7937 10.2842 23.5613 10.8565 23.1476 11.2785C22.7339 11.7004 22.1729 11.9375 21.5878 11.9375H20.6989L21.5592 14.5722C21.5991 14.7119 21.5844 14.8619 21.5182 14.9908C21.452 15.1197 21.3395 15.2174 21.2041 15.2634C21.0688 15.3094 20.9213 15.3001 20.7925 15.2375C20.6638 15.175 20.5638 15.0639 20.5136 14.9277L20.2709 14.1875H4.72827L4.48636 14.9277C4.44014 15.0694 4.34066 15.1865 4.2098 15.2533C4.07894 15.3201 3.92742 15.3311 3.78857 15.284C3.64972 15.2369 3.53492 15.1354 3.46942 15.0019C3.40392 14.8684 3.39309 14.7139 3.4393 14.5722L4.30107 11.9375H3.41136C2.82633 11.9375 2.26525 11.7004 1.85157 11.2785C1.43789 10.8565 1.20548 10.2842 1.20548 9.6875V1.8125H0.65401C0.507751 1.8125 0.367482 1.75324 0.264061 1.64775C0.16064 1.54226 0.102539 1.39918 0.102539 1.25C0.102539 1.10082 0.16064 0.957742 0.264061 0.852252ZM19.5364 11.9375H5.46283L5.09519 13.0625H19.904L19.5364 11.9375ZM17.6035 4.65896C17.6934 4.60111 17.7723 4.52371 17.8356 4.43121C17.899 4.33871 17.9455 4.23294 17.9726 4.11999C17.9997 4.00704 18.0068 3.88914 17.9935 3.77308C17.9801 3.65702 17.9467 3.54508 17.895 3.44373C17.8433 3.34237 17.7744 3.25359 17.6922 3.18249C17.6101 3.1114 17.5164 3.0594 17.4164 3.02948C17.3164 2.99956 17.2122 2.99233 17.1098 3.00818C17.0074 3.02404 16.9087 3.06267 16.8195 3.12186C15.3942 4.05576 14.1334 5.27924 13.1002 6.73091L11.4936 4.91337C11.3466 4.74718 11.1473 4.65383 10.9395 4.65383C10.7318 4.65383 10.5325 4.74718 10.3855 4.91337L7.24953 8.46325C7.1725 8.54449 7.11072 8.64247 7.06787 8.75133C7.02502 8.8602 7.00198 8.97771 7.00012 9.09687C6.99826 9.21604 7.01763 9.3344 7.05706 9.4449C7.09649 9.55541 7.15518 9.65579 7.22963 9.74006C7.30407 9.82434 7.39275 9.89077 7.49037 9.93541C7.588 9.98004 7.69256 10.002 7.79783 9.99986C7.90309 9.99776 8.00691 9.97168 8.10308 9.92317C8.19925 9.87467 8.2858 9.80473 8.35757 9.71754L10.9395 6.79481L12.6298 8.70937C12.7109 8.80117 12.8088 8.87171 12.9166 8.91602C13.0244 8.96033 13.1395 8.97733 13.2537 8.96582C13.3679 8.95431 13.4786 8.91457 13.5777 8.84941C13.6769 8.78425 13.7623 8.69524 13.8278 8.58868C14.8172 6.98184 16.1061 5.64038 17.6035 4.65896Z" fill="currentColor"/>
</svg>