<svg width="100%" style="" viewBox="0 0 35 18" fill="none" xmlns="http://www.w3.org/2000/svg">
<path fill-rule="evenodd" clip-rule="evenodd" d="M1.11719 5.34375C1.11719 4.56675 1.74272 3.9375 2.51346 3.9375H6.98155C7.75304 3.9375 8.37783 4.5675 8.37783 5.34375V8.15625C8.37783 8.93325 7.75229 9.5625 6.98155 9.5625H2.51346C2.14315 9.5625 1.788 9.41434 1.52615 9.15062C1.26429 8.8869 1.11719 8.52921 1.11719 8.15625V5.34375ZM10.0534 6.46875C10.0534 5.69175 10.6789 5.0625 11.4496 5.0625H15.3592C16.13 5.0625 16.7555 5.6925 16.7555 6.46875V12.6562C16.7555 13.4325 16.13 14.0625 15.3592 14.0625H11.4496C11.0793 14.0625 10.7242 13.9143 10.4623 13.6506C10.2005 13.3869 10.0534 13.0292 10.0534 12.6562V6.46875ZM2.23421 12.0937C2.23421 11.3167 2.85974 10.6875 3.63049 10.6875H7.54006C8.31155 10.6875 8.93634 11.3175 8.93634 12.0937V13.7812C8.93634 14.5575 8.3108 15.1875 7.54006 15.1875H3.63049C3.26017 15.1875 2.90502 15.0393 2.64317 14.7756C2.38132 14.5119 2.23421 14.1542 2.23421 13.7812V12.0937Z" fill="currentColor"/>
<rect x="18.6172" y="5.40002" width="5.95745" height="5.25" rx="1.5" fill="currentColor"/>
<rect x="18.8457" y="12.3" width="5.38462" height="1.8" rx="0.9" fill="currentColor"/>
<rect x="26.0254" y="4.05005" width="8.07692" height="5.4" rx="1.5" fill="currentColor"/>
<rect x="26.0254" y="10.8" width="7.17949" height="4.5" rx="1.5" fill="currentColor"/>
</svg>