<svg width="100%" viewBox="0 0 32 15" fill="none" xmlns="http://www.w3.org/2000/svg">
  <path fill-rule="evenodd" clip-rule="evenodd" d="M3 0C1.34315 0 0 1.34315 0 3V12C0 13.6569 1.34315 15 3 15H29C30.6569 15 32 13.6569 32 12V3C32 1.34315 30.6569 0 29 0H3ZM6.09 9.96C6.95667 10.7333 8.05 11.12 9.37 11.12C10.23 11.12 10.9167 10.9167 11.43 10.51C11.9433 10.1033 12.2 9.54667 12.2 8.84C12.2 8.21333 11.9833 7.74 11.55 7.42C11.1233 7.09333 10.47 6.83333 9.59 6.64C9.11 6.53333 8.78667 6.43333 8.62 6.34C8.46 6.24667 8.38 6.12 8.38 5.96C8.38 5.82 8.44 5.70667 8.56 5.62C8.68 5.53333 8.85333 5.49 9.08 5.49C9.73333 5.49 10.3867 5.72 11.04 6.18L12.01 4.81C11.2367 4.19 10.2767 3.88 9.13 3.88C8.30333 3.88 7.64333 4.09 7.15 4.51C6.66333 4.92333 6.42 5.46 6.42 6.12C6.42 6.47333 6.48333 6.77667 6.61 7.03C6.73667 7.28333 6.93 7.49333 7.19 7.66C7.45667 7.82 7.72667 7.95 8 8.05C8.28 8.14333 8.63333 8.24 9.06 8.34C9.52667 8.44667 9.84 8.55 10 8.65C10.16 8.74333 10.24 8.86333 10.24 9.01C10.24 9.34333 9.97333 9.51 9.44 9.51C8.62667 9.51 7.87 9.23 7.17 8.67L6.09 9.96ZM13.1434 4V11H15.0834V9H16.0434C16.9434 9 17.6701 8.78 18.2234 8.34C18.7768 7.9 19.0534 7.28 19.0534 6.48C19.0534 5.7 18.7901 5.09333 18.2634 4.66C17.7434 4.22 17.0368 4 16.1434 4H13.1434ZM16.0034 7.48H15.0834V5.63H15.9934C16.3468 5.63 16.6201 5.71 16.8134 5.87C17.0134 6.02333 17.1134 6.25 17.1134 6.55C17.1134 6.83667 17.0134 7.06333 16.8134 7.23C16.6201 7.39667 16.3501 7.48 16.0034 7.48ZM21.5888 3.95L18.6088 11H20.6488L21.1488 9.75H23.8488L24.3588 11H26.4388L23.4588 3.95H21.5888ZM23.2888 8.24H21.7188L22.5088 6.25L23.2888 8.24Z" fill="currentColor" />
</svg>