<svg width="100%" style="" viewBox="0 0 35 15" fill="none" xmlns="http://www.w3.org/2000/svg">
<path fill-rule="evenodd" clip-rule="evenodd" d="M4.38004 0C3.56387 0 2.85931 0.533727 2.69134 1.27925L0.0375781 13.0578C-0.187966 14.0588 0.630349 15 1.72628 15H25.62C26.4361 15 27.1407 14.4663 27.3087 13.7208L29.9624 1.94223C30.188 0.941172 29.3697 0 28.2737 0H4.38004ZM13.293 2.86124C12.2559 3.02714 11.6291 3.57179 11.3243 4.57192C11.2841 4.70396 10.9685 5.97642 10.6231 7.39956L9.99521 9.9871L9.99607 10.3511C9.99765 11.0409 10.3836 11.6095 11.0437 11.8945C11.0646 11.9036 11.0842 11.9122 11.1029 11.9203C11.157 11.9441 11.2031 11.9643 11.2504 11.9815C11.5234 12.0809 11.8383 12.0808 13.9691 12.0805C14.0973 12.0805 14.2321 12.0805 14.3739 12.0805H17.1036L17.4051 10.8171C17.6343 9.85632 17.6993 9.54176 17.6763 9.50384C17.6469 9.45538 17.5859 9.45399 15.5497 9.45399C13.6768 9.41952 13.4705 9.41952 13.4705 9.41952C13.4705 9.41952 13.69 8.4824 13.9485 7.40616L14.4187 5.44928L17.7843 5.44915L18.3282 5.05658C18.6272 4.8407 18.8814 4.6446 18.8928 4.62101C18.9605 4.48111 19.2967 2.91857 19.2689 2.87278C19.2299 2.8086 13.689 2.79782 13.293 2.86124Z" fill="currentColor"/>
<path fill-rule="evenodd" clip-rule="evenodd" d="M31.7053 2L29 14H29.715C30.3271 14 30.8555 13.573 30.9815 12.9766L32.9718 3.55378C33.141 2.75294 32.5272 2 31.7053 2Z" fill="currentColor"/>
<path fill-rule="evenodd" clip-rule="evenodd" d="M34.029 4L32 13H32.5362C32.9953 13 33.3916 12.6798 33.4861 12.2325L34.9789 5.16534C35.1057 4.5647 34.6454 4 34.029 4Z" fill="currentColor"/>
</svg>